<svg width="43" height="44" viewBox="0 0 43 44" fill="none" xmlns="http://www.w3.org/2000/svg">
<path fill-rule="evenodd" clip-rule="evenodd" d="M21.5 0C9.62125 0 0 9.845 0 22C0 31.735 6.15437 39.9575 14.7006 42.8725C15.7756 43.065 16.1787 42.405 16.1787 41.8275C16.1787 41.305 16.1519 39.5725 16.1519 37.73C10.75 38.7475 9.3525 36.3825 8.9225 35.145C8.68062 34.5125 7.6325 32.56 6.71875 32.0375C5.96625 31.625 4.89125 30.6075 6.69187 30.58C8.385 30.5525 9.59437 32.175 9.9975 32.835C11.9325 36.1625 15.0231 35.2275 16.2594 34.65C16.4475 33.22 17.0119 32.2575 17.63 31.7075C12.8462 31.1575 7.8475 29.26 7.8475 20.845C7.8475 18.4525 8.68062 16.4725 10.0513 14.9325C9.83625 14.3825 9.08375 12.1275 10.2662 9.1025C10.2662 9.1025 12.0669 8.525 16.1787 11.3575C17.8988 10.8625 19.7263 10.615 21.5538 10.615C23.3813 10.615 25.2088 10.8625 26.9288 11.3575C31.0406 8.4975 32.8413 9.1025 32.8413 9.1025C34.0238 12.1275 33.2713 14.3825 33.0563 14.9325C34.4269 16.4725 35.26 18.425 35.26 20.845C35.26 29.2875 30.2344 31.1575 25.4506 31.7075C26.23 32.395 26.9019 33.715 26.9019 35.7775C26.9019 38.72 26.875 41.085 26.875 41.8275C26.875 42.405 27.2781 43.0925 28.3531 42.8725C36.8456 39.9575 43 31.7075 43 22C43 9.845 33.3787 0 21.5 0Z" fill="#1B1F23"/>
</svg>
