<svg width="56" height="56" viewBox="0 0 56 56" fill="none" xmlns="http://www.w3.org/2000/svg">
<g clip-path="url(#clip0_7_99)">
<path d="M18.6663 28.0172C18.6573 22.8633 22.8286 18.6766 27.9815 18.6675C33.1353 18.6574 37.3229 22.827 37.3329 27.9819C37.3429 33.1366 33.1716 37.3225 28.0168 37.3325C22.8639 37.3424 18.6763 33.172 18.6663 28.0172ZM13.6233 28.0271C13.6387 35.968 20.088 42.391 28.0269 42.3756C35.9666 42.3602 42.3933 35.9126 42.3779 27.9718C42.3624 20.0337 35.9123 13.607 27.9715 13.6224C20.0326 13.6379 13.6079 20.0882 13.6233 28.0271ZM39.5565 13.0328C39.5601 14.887 41.0678 16.3885 42.9222 16.3849C44.7773 16.3813 46.2788 14.8744 46.2761 13.0201C46.2725 11.1658 44.7648 9.6634 42.9095 9.66701C41.0543 9.67062 39.5529 11.1784 39.5565 13.0328ZM16.7304 50.8109C14.0006 50.692 12.5183 50.2385 11.5304 49.8584C10.2222 49.3521 9.28865 48.7452 8.30613 47.77C7.32547 46.7911 6.71669 45.8603 6.20591 44.5547C5.82222 43.5668 5.36044 42.0862 5.23247 39.3564C5.09368 36.4053 5.06196 35.5199 5.0484 28.0435C5.03385 20.569 5.06108 19.6836 5.18993 16.7297C5.30685 14.0016 5.76327 12.5174 6.14247 11.5304C6.64866 10.2204 7.25383 9.28868 8.23088 8.30616C9.20968 7.32376 10.1405 6.71673 11.4468 6.20595C12.4339 5.8204 13.9144 5.36223 16.6433 5.23251C19.5963 5.09284 20.4808 5.06287 27.9552 5.04832C35.4313 5.03388 36.3167 5.06013 39.2707 5.18996C41.9985 5.30874 43.4828 5.76057 44.469 6.14251C45.778 6.6487 46.7115 7.25201 47.6932 8.23091C48.6747 9.20982 49.2835 10.1387 49.7943 11.4479C50.1797 12.4322 50.638 13.9146 50.7668 16.6425C50.9074 19.5955 50.9392 20.481 50.9528 27.9555C50.9672 35.4318 50.94 36.3173 50.8103 39.2694C50.6915 41.9991 50.2388 43.4825 49.8578 44.4713C49.3515 45.7786 48.7464 46.7121 47.7684 47.6947C46.7905 48.6735 45.8597 49.2841 44.5525 49.7948C43.5671 50.1795 42.0848 50.6386 39.3578 50.7683C36.4049 50.9071 35.5203 50.9388 28.0432 50.9525C20.5687 50.9669 19.6843 50.9388 16.7304 50.8109ZM16.4038 0.193931C13.4246 0.334477 11.3897 0.811681 9.61152 1.5084C7.77085 2.22601 6.2105 3.18774 4.65836 4.74634C3.10425 6.30581 2.14985 7.86888 1.43771 9.71141C0.748318 11.4941 0.281068 13.5299 0.14949 16.511C0.0188959 19.4976 -0.0110728 20.4502 0.00347406 28.0535C0.0180209 35.6559 0.0514897 36.6103 0.193896 39.5977C0.336302 42.5761 0.811755 44.6101 1.50847 46.3891C2.22696 48.2299 3.18771 49.7894 4.74718 51.3425C6.30577 52.8957 7.86983 53.8492 9.71324 54.5623C11.4941 55.2508 13.5306 55.7198 16.5109 55.8505C19.4974 55.9821 20.4508 56.0111 28.0522 55.9965C35.6573 55.9821 36.6108 55.9485 39.5973 55.807C42.5766 55.6644 44.6095 55.1874 46.3895 54.4924C48.2302 53.772 49.7905 52.8132 51.3429 51.2537C52.895 49.695 53.8494 48.131 54.5616 46.2875C55.2511 44.5067 55.7201 42.47 55.8497 39.4916C55.9804 36.5033 56.0113 35.5489 55.9967 27.9464C55.9821 20.3431 55.9478 19.3906 55.8063 16.4048C55.6647 13.4238 55.1875 11.3906 54.4917 9.61068C53.7723 7.77001 52.8126 6.21142 51.254 4.65741C49.6954 3.10517 48.1313 2.1489 46.2879 1.43862C44.5062 0.749009 42.4704 0.279134 39.4903 0.15029C36.5037 0.0179462 35.5502 -0.0111475 27.9461 0.00339935C20.3437 0.0179462 19.3903 0.05054 16.4038 0.193931Z" fill="white"/>
</g>
<defs>
<clipPath id="clip0_7_99">
<rect width="56" height="56" fill="white"/>
</clipPath>
</defs>
</svg>
