<svg width="56" height="56" viewBox="0 0 56 56" fill="none" xmlns="http://www.w3.org/2000/svg">
<g clip-path="url(#clip0_7_104)">
<path fill-rule="evenodd" clip-rule="evenodd" d="M51.9443 0H4.221C1.93812 0 0 1.80512 0 4.02948V51.9684C0 54.1949 1.27192 56 3.55381 56H51.2771C53.5629 56 56 54.1949 56 51.9684V4.02948C56 1.80512 54.2291 0 51.9443 0ZM21.3328 21.3328H28.8718V25.1758H28.9544C30.1034 23.1037 33.498 21.0002 37.6958 21.0002C45.7518 21.0002 48.0004 25.2777 48.0004 33.1997V48.0004H39.9999V34.6591C39.9999 31.1124 38.5838 28 35.2719 28C31.2504 28 29.3334 30.7222 29.3334 35.1923V48.0004H21.3328V21.3328ZM7.99958 48.0004H16.0001V21.3328H7.99958V48.0004ZM16.9999 11.9999C16.9999 14.7625 14.7625 16.9999 11.9999 16.9999C9.23727 16.9999 6.99978 14.7625 6.99978 11.9999C6.99978 9.23727 9.23727 6.99978 11.9999 6.99978C14.7625 6.99978 16.9999 9.23727 16.9999 11.9999Z" fill="white"/>
</g>
<defs>
<clipPath id="clip0_7_104">
<rect width="56" height="56" fill="white"/>
</clipPath>
</defs>
</svg>
